<svg width="100" height="100" viewBox="0 0 100 100" fill="none" xmlns="http://www.w3.org/2000/svg">
<g clip-path="url(#clip0_3702_237)">
<path d="M65.6028 7.80142V34.3972H92.1986" stroke="#5A65FF" stroke-width="6" stroke-linecap="round" stroke-linejoin="round"/>
<path d="M96.6312 3.36879L65.6028 34.3972" stroke="#5A65FF" stroke-width="6" stroke-linecap="round" stroke-linejoin="round"/>
<path d="M92.1986 73.9362V87.234C92.2036 88.4685 91.9507 89.6905 91.4562 90.8216C90.9616 91.9527 90.2363 92.968 89.3266 93.8026C88.4169 94.6372 87.343 95.2725 86.1735 95.668C85.0041 96.0635 83.765 96.2104 82.5355 96.0993C68.8955 94.6172 55.7934 89.9563 44.2819 82.4911C33.5719 75.6856 24.4917 66.6054 17.6862 55.8954C10.1949 44.3316 5.53299 31.1658 4.07801 17.4645C3.96724 16.2388 4.11292 15.0034 4.50576 13.837C4.89861 12.6706 5.53001 11.5988 6.35978 10.6898C7.18954 9.78083 8.19949 9.05457 9.32531 8.55728C10.4511 8.06 11.6682 7.80258 12.8989 7.80142H26.1968C28.348 7.78025 30.4335 8.54202 32.0645 9.94474C33.6956 11.3475 34.761 13.2954 35.0621 15.4255C35.6233 19.6812 36.6642 23.8596 38.1649 27.8812C38.7613 29.4678 38.8903 31.192 38.5368 32.8497C38.1833 34.5073 37.362 36.0289 36.1702 37.234L30.5408 42.8635C36.8509 53.9608 46.0392 63.1491 57.1365 69.4592L62.766 63.8298C63.9711 62.638 65.4927 61.8167 67.1504 61.4632C68.808 61.1097 70.5323 61.2387 72.1188 61.8351C76.1404 63.3358 80.3189 64.3767 84.5745 64.9379C86.7277 65.2417 88.6942 66.3263 90.0999 67.9854C91.5056 69.6444 92.2525 71.7623 92.1986 73.9362Z" stroke="#B53B97" stroke-width="6" stroke-linecap="round" stroke-linejoin="round"/>
</g>
<defs>
<clipPath id="clip0_3702_237">
<rect width="100" height="100" fill="white"/>
</clipPath>
</defs>
</svg>
